<svg width="33" height="33" viewBox="0 0 33 33" fill="none" xmlns="http://www.w3.org/2000/svg">
<g clip-path="url(#clip0_108_1096)">
<path d="M32.2016 16.5C32.2016 7.3873 24.993 0 16.1008 0C7.20857 0 0 7.3873 0 16.5C0 24.7356 5.88783 31.5617 13.5851 32.7996V21.2695H9.49696V16.5H13.5851V12.8648C13.5851 8.72953 15.9888 6.44531 19.6666 6.44531C21.4281 6.44531 23.2707 6.76758 23.2707 6.76758V10.8281H21.2404C19.2403 10.8281 18.6166 12.1 18.6166 13.4049V16.5H23.082L22.3682 21.2695H18.6166V32.7996C26.3138 31.5617 32.2016 24.7356 32.2016 16.5Z" fill="#1877F2"/>
<path d="M22.3683 21.2695L23.0821 16.5H18.6167V13.4049C18.6167 12.1 19.2404 10.8281 21.2405 10.8281H23.2708V6.76758C23.2708 6.76758 21.4282 6.44531 19.6667 6.44531C15.9889 6.44531 13.5852 8.72953 13.5852 12.8648V16.5H9.49707V21.2695H13.5852V32.7996C14.4049 32.9314 15.2451 33 16.1009 33C16.9568 33 17.7969 32.9314 18.6167 32.7996V21.2695H22.3683Z" fill="white"/>
</g>
<defs>
<clipPath id="clip0_108_1096">
<rect width="32.2016" height="33" fill="white"/>
</clipPath>
</defs>
</svg>
