<svg width="34" height="33" viewBox="0 0 34 33" fill="none" xmlns="http://www.w3.org/2000/svg">
<path fill-rule="evenodd" clip-rule="evenodd" d="M8.7923 16.5C8.7923 11.8205 12.494 8.02703 17.0603 8.02703C21.6266 8.02703 25.3283 11.8205 25.3283 16.5C25.3283 21.1795 21.6266 24.973 17.0603 24.973C12.494 24.973 8.7923 21.1795 8.7923 16.5ZM17.0603 22C14.0962 22 11.6933 19.5376 11.6933 16.5C11.6933 13.4624 14.0962 11 17.0603 11C20.0244 11 22.4272 13.4624 22.4272 16.5C22.4272 19.5376 20.0244 22 17.0603 22Z" fill="url(#paint0_linear_108_1106)"/>
<path fill-rule="evenodd" clip-rule="evenodd" d="M8.7923 16.5C8.7923 11.8205 12.494 8.02703 17.0603 8.02703C21.6266 8.02703 25.3283 11.8205 25.3283 16.5C25.3283 21.1795 21.6266 24.973 17.0603 24.973C12.494 24.973 8.7923 21.1795 8.7923 16.5ZM17.0603 22C14.0962 22 11.6933 19.5376 11.6933 16.5C11.6933 13.4624 14.0962 11 17.0603 11C20.0244 11 22.4272 13.4624 22.4272 16.5C22.4272 19.5376 20.0244 22 17.0603 22Z" fill="url(#paint1_radial_108_1106)"/>
<path d="M25.6549 9.67225C26.722 9.67225 27.587 8.78581 27.587 7.69228C27.587 6.59874 26.722 5.71224 25.6549 5.71224C24.5879 5.71224 23.7228 6.59874 23.7228 7.69228C23.7228 8.78581 24.5879 9.67225 25.6549 9.67225Z" fill="url(#paint2_linear_108_1106)"/>
<path d="M25.6549 9.67225C26.722 9.67225 27.587 8.78581 27.587 7.69228C27.587 6.59874 26.722 5.71224 25.6549 5.71224C24.5879 5.71224 23.7228 6.59874 23.7228 7.69228C23.7228 8.78581 24.5879 9.67225 25.6549 9.67225Z" fill="url(#paint3_radial_108_1106)"/>
<path fill-rule="evenodd" clip-rule="evenodd" d="M17.0603 0C12.6876 0 12.1393 0.0189941 10.4219 0.0992932C8.70819 0.179396 7.53777 0.458347 6.51364 0.866261C5.45487 1.28786 4.55697 1.85205 3.66181 2.76934C2.76672 3.68669 2.21618 4.60685 1.80478 5.69187C1.40673 6.74139 1.13453 7.94084 1.05636 9.69707C0.978007 11.457 0.959473 12.0189 0.959473 16.5C0.959473 20.9811 0.978007 21.543 1.05636 23.3029C1.13453 25.0592 1.40673 26.2586 1.80478 27.3081C2.21618 28.3931 2.76672 29.3133 3.66181 30.2307C4.55697 31.1479 5.45487 31.7121 6.51364 32.1338C7.53777 32.5417 8.70819 32.8206 10.4219 32.9007C12.1393 32.981 12.6876 33 17.0603 33C21.433 33 21.9813 32.981 23.6986 32.9007C25.4124 32.8206 26.5828 32.5417 27.6069 32.1338C28.6657 31.7121 29.5636 31.1479 30.4587 30.2307C31.3538 29.3133 31.9044 28.3931 32.3158 27.3081C32.7138 26.2586 32.986 25.0592 33.0642 23.3029C33.1426 21.543 33.1611 20.9811 33.1611 16.5C33.1611 12.0189 33.1426 11.457 33.0642 9.69707C32.986 7.94084 32.7138 6.74139 32.3158 5.69187C31.9044 4.60685 31.3538 3.68669 30.4587 2.76934C29.5636 1.85205 28.6657 1.28786 27.6069 0.866261C26.5828 0.458347 25.4124 0.179396 23.6986 0.0992932C21.9813 0.0189941 21.433 0 17.0603 0ZM17.0603 2.97297C21.3594 2.97297 21.8686 2.9898 23.5664 3.06918C25.1362 3.14254 25.9887 3.41134 26.5561 3.6373C27.3076 3.93662 27.844 4.29417 28.4074 4.87159C28.9708 5.44895 29.3197 5.99859 29.6118 6.76877C29.8323 7.35019 30.0946 8.22385 30.1662 9.83258C30.2436 11.5724 30.26 12.0943 30.26 16.5C30.26 20.9057 30.2436 21.4276 30.1662 23.1674C30.0946 24.7761 29.8323 25.6498 29.6118 26.2312C29.3197 27.0014 28.9708 27.5511 28.4074 28.1284C27.844 28.7058 27.3076 29.0634 26.5561 29.3627C25.9887 29.5887 25.1362 29.8575 23.5664 29.9308C21.8689 30.0102 21.3597 30.027 17.0603 30.027C12.7609 30.027 12.2517 30.0102 10.5542 29.9308C8.98436 29.8575 8.13184 29.5887 7.56449 29.3627C6.81294 29.0634 6.27659 28.7058 5.71321 28.1284C5.14982 27.5511 4.80086 27.0014 4.50878 26.2312C4.28828 25.6498 4.02599 24.7761 3.9544 23.1674C3.87694 21.4276 3.86052 20.9057 3.86052 16.5C3.86052 12.0943 3.87694 11.5724 3.9544 9.83258C4.02599 8.22385 4.28828 7.35019 4.50878 6.76877C4.80086 5.99859 5.14976 5.44895 5.71321 4.87159C6.27659 4.29417 6.81294 3.93662 7.56449 3.6373C8.13184 3.41134 8.98436 3.14254 10.5542 3.06918C12.2519 2.9898 12.7612 2.97297 17.0603 2.97297Z" fill="url(#paint4_linear_108_1106)"/>
<path fill-rule="evenodd" clip-rule="evenodd" d="M17.0603 0C12.6876 0 12.1393 0.0189941 10.4219 0.0992932C8.70819 0.179396 7.53777 0.458347 6.51364 0.866261C5.45487 1.28786 4.55697 1.85205 3.66181 2.76934C2.76672 3.68669 2.21618 4.60685 1.80478 5.69187C1.40673 6.74139 1.13453 7.94084 1.05636 9.69707C0.978007 11.457 0.959473 12.0189 0.959473 16.5C0.959473 20.9811 0.978007 21.543 1.05636 23.3029C1.13453 25.0592 1.40673 26.2586 1.80478 27.3081C2.21618 28.3931 2.76672 29.3133 3.66181 30.2307C4.55697 31.1479 5.45487 31.7121 6.51364 32.1338C7.53777 32.5417 8.70819 32.8206 10.4219 32.9007C12.1393 32.981 12.6876 33 17.0603 33C21.433 33 21.9813 32.981 23.6986 32.9007C25.4124 32.8206 26.5828 32.5417 27.6069 32.1338C28.6657 31.7121 29.5636 31.1479 30.4587 30.2307C31.3538 29.3133 31.9044 28.3931 32.3158 27.3081C32.7138 26.2586 32.986 25.0592 33.0642 23.3029C33.1426 21.543 33.1611 20.9811 33.1611 16.5C33.1611 12.0189 33.1426 11.457 33.0642 9.69707C32.986 7.94084 32.7138 6.74139 32.3158 5.69187C31.9044 4.60685 31.3538 3.68669 30.4587 2.76934C29.5636 1.85205 28.6657 1.28786 27.6069 0.866261C26.5828 0.458347 25.4124 0.179396 23.6986 0.0992932C21.9813 0.0189941 21.433 0 17.0603 0ZM17.0603 2.97297C21.3594 2.97297 21.8686 2.9898 23.5664 3.06918C25.1362 3.14254 25.9887 3.41134 26.5561 3.6373C27.3076 3.93662 27.844 4.29417 28.4074 4.87159C28.9708 5.44895 29.3197 5.99859 29.6118 6.76877C29.8323 7.35019 30.0946 8.22385 30.1662 9.83258C30.2436 11.5724 30.26 12.0943 30.26 16.5C30.26 20.9057 30.2436 21.4276 30.1662 23.1674C30.0946 24.7761 29.8323 25.6498 29.6118 26.2312C29.3197 27.0014 28.9708 27.5511 28.4074 28.1284C27.844 28.7058 27.3076 29.0634 26.5561 29.3627C25.9887 29.5887 25.1362 29.8575 23.5664 29.9308C21.8689 30.0102 21.3597 30.027 17.0603 30.027C12.7609 30.027 12.2517 30.0102 10.5542 29.9308C8.98436 29.8575 8.13184 29.5887 7.56449 29.3627C6.81294 29.0634 6.27659 28.7058 5.71321 28.1284C5.14982 27.5511 4.80086 27.0014 4.50878 26.2312C4.28828 25.6498 4.02599 24.7761 3.9544 23.1674C3.87694 21.4276 3.86052 20.9057 3.86052 16.5C3.86052 12.0943 3.87694 11.5724 3.9544 9.83258C4.02599 8.22385 4.28828 7.35019 4.50878 6.76877C4.80086 5.99859 5.14976 5.44895 5.71321 4.87159C6.27659 4.29417 6.81294 3.93662 7.56449 3.6373C8.13184 3.41134 8.98436 3.14254 10.5542 3.06918C12.2519 2.9898 12.7612 2.97297 17.0603 2.97297Z" fill="url(#paint5_radial_108_1106)"/>
<defs>
<linearGradient id="paint0_linear_108_1106" x1="2.83833" y1="1.73491" x2="13.4675" y2="41.855" gradientUnits="userSpaceOnUse">
<stop stop-color="#4E60D3"/>
<stop offset="0.142763" stop-color="#913BAF"/>
<stop offset="0.761458" stop-color="#D52D88"/>
<stop offset="1" stop-color="#F26D4F"/>
</linearGradient>
<radialGradient id="paint1_radial_108_1106" cx="0" cy="0" r="1" gradientUnits="userSpaceOnUse" gradientTransform="translate(10.7083 33) rotate(32.7957) scale(30.2877 22.0243)">
<stop stop-color="#FED276"/>
<stop offset="0.17024" stop-color="#FDBD61" stop-opacity="0.975006"/>
<stop offset="0.454081" stop-color="#F6804D"/>
<stop offset="1" stop-color="#E83D5C" stop-opacity="0.01"/>
</radialGradient>
<linearGradient id="paint2_linear_108_1106" x1="2.83833" y1="1.73491" x2="13.4675" y2="41.855" gradientUnits="userSpaceOnUse">
<stop stop-color="#4E60D3"/>
<stop offset="0.142763" stop-color="#913BAF"/>
<stop offset="0.761458" stop-color="#D52D88"/>
<stop offset="1" stop-color="#F26D4F"/>
</linearGradient>
<radialGradient id="paint3_radial_108_1106" cx="0" cy="0" r="1" gradientUnits="userSpaceOnUse" gradientTransform="translate(10.7083 33) rotate(32.7957) scale(30.2877 22.0243)">
<stop stop-color="#FED276"/>
<stop offset="0.17024" stop-color="#FDBD61" stop-opacity="0.975006"/>
<stop offset="0.454081" stop-color="#F6804D"/>
<stop offset="1" stop-color="#E83D5C" stop-opacity="0.01"/>
</radialGradient>
<linearGradient id="paint4_linear_108_1106" x1="2.83833" y1="1.73491" x2="13.4675" y2="41.855" gradientUnits="userSpaceOnUse">
<stop stop-color="#4E60D3"/>
<stop offset="0.142763" stop-color="#913BAF"/>
<stop offset="0.761458" stop-color="#D52D88"/>
<stop offset="1" stop-color="#F26D4F"/>
</linearGradient>
<radialGradient id="paint5_radial_108_1106" cx="0" cy="0" r="1" gradientUnits="userSpaceOnUse" gradientTransform="translate(10.7083 33) rotate(32.7957) scale(30.2877 22.0243)">
<stop stop-color="#FED276"/>
<stop offset="0.17024" stop-color="#FDBD61" stop-opacity="0.975006"/>
<stop offset="0.454081" stop-color="#F6804D"/>
<stop offset="1" stop-color="#E83D5C" stop-opacity="0.01"/>
</radialGradient>
</defs>
</svg>
