<svg width="70" height="70" viewBox="0 0 70 70" fill="none" xmlns="http://www.w3.org/2000/svg">
<circle cx="35" cy="35" r="35" fill="#25D366"/>
<path d="M44.1635 39.0844C43.6661 38.8349 41.2195 37.6325 40.764 37.4651C40.3068 37.2993 39.9752 37.2172 39.642 37.7162C39.3121 38.2136 38.3576 39.3339 38.0679 39.6655C37.7781 39.9988 37.4868 40.0389 36.9894 39.7911C36.492 39.5399 34.8878 39.0158 32.9871 37.321C31.5084 36.0014 30.5086 34.372 30.2189 33.873C29.9292 33.3756 30.1888 33.106 30.4366 32.8582C30.661 32.6355 30.9357 32.2771 31.1835 31.9874C31.433 31.696 31.5151 31.4883 31.6825 31.1551C31.8483 30.8235 31.7663 30.5338 31.6407 30.2843C31.5151 30.0348 30.5204 27.5848 30.1067 26.5884C29.7015 25.6188 29.2912 25.7511 28.9864 25.7344C28.6967 25.721 28.3651 25.7176 28.0319 25.7176C27.7003 25.7176 27.1611 25.8415 26.7056 26.3406C26.2501 26.8379 24.964 28.042 24.964 30.492C24.964 32.9402 26.7474 35.3065 26.9953 35.6397C27.2448 35.9713 30.5053 40.9985 35.4973 43.1537C36.6846 43.6662 37.6107 43.9726 38.3341 44.2004C39.5264 44.5805 40.6116 44.5269 41.4673 44.398C42.4235 44.2556 44.4113 43.1939 44.8266 42.0317C45.2419 40.8696 45.2419 39.8732 45.1163 39.6655C44.9924 39.4579 44.6608 39.3339 44.1618 39.0844M35.0837 51.4816H35.077C32.1125 51.4818 29.2026 50.6848 26.652 49.174L26.0474 48.8156L19.7827 50.4601L21.454 44.3511L21.0604 43.7248C19.4033 41.086 18.5266 38.0322 18.5318 34.9163C18.5334 25.7896 25.9604 18.3644 35.0904 18.3644C39.5114 18.3644 43.6678 20.0892 46.7926 23.2174C48.3344 24.7524 49.5564 26.5779 50.388 28.5883C51.2196 30.5987 51.6442 32.7541 51.6373 34.9297C51.6323 44.0564 44.207 51.4816 35.0837 51.4816ZM49.1722 20.8411C47.3271 18.9839 45.1318 17.5112 42.7134 16.5086C40.295 15.5059 37.7017 14.9932 35.0837 15.0001C24.1066 15.0001 15.1725 23.9342 15.1675 34.9146C15.1675 38.4246 16.0835 41.8509 17.8268 44.8702L15 55.1909L25.5585 52.4211C28.4783 54.0118 31.7503 54.8455 35.0753 54.8459H35.0837C46.0591 54.8459 54.9949 45.9118 54.9999 34.9297C55.008 32.3127 54.4971 29.7201 53.4968 27.3019C52.4965 24.8836 51.0266 22.6877 49.1722 20.8411Z" fill="white"/>
</svg>