<svg width="33" height="33" viewBox="0 0 33 33" fill="none" xmlns="http://www.w3.org/2000/svg">
<rect width="33" height="33" rx="5" fill="#25D366"/>
<path d="M22.1398 19.5786C21.8602 19.4293 20.4846 18.7098 20.2285 18.6096C19.9714 18.5104 19.785 18.4613 19.5976 18.7599C19.4122 19.0575 18.8755 19.7279 18.7126 19.9262C18.5497 20.1256 18.3859 20.1497 18.1062 20.0014C17.8266 19.8511 16.9246 19.5375 15.8559 18.5234C15.0245 17.7339 14.4624 16.7589 14.2995 16.4603C14.1366 16.1627 14.2826 16.0014 14.4219 15.8531C14.5481 15.7198 14.7025 15.5054 14.8419 15.332C14.9821 15.1577 15.0283 15.0334 15.1224 14.834C15.2157 14.6356 15.1695 14.4623 15.0989 14.313C15.0283 14.1637 14.469 12.6977 14.2364 12.1016C14.0086 11.5214 13.7779 11.6005 13.6065 11.5905C13.4436 11.5825 13.2572 11.5805 13.0699 11.5805C12.8834 11.5805 12.5802 11.6547 12.3241 11.9533C12.068 12.2509 11.3449 12.9713 11.3449 14.4372C11.3449 15.9022 12.3477 17.318 12.487 17.5174C12.6273 17.7158 14.4605 20.7238 17.2673 22.0134C17.9349 22.32 18.4555 22.5034 18.8623 22.6397C19.5327 22.8671 20.1428 22.8351 20.6239 22.7579C21.1616 22.6728 22.2792 22.0375 22.5127 21.3421C22.7462 20.6467 22.7462 20.0505 22.6756 19.9262C22.6059 19.802 22.4195 19.7279 22.1389 19.5786M17.0347 26.9964H17.031C15.3642 26.9966 13.7281 26.5197 12.294 25.6157L11.9541 25.4012L8.43175 26.3852L9.37143 22.7299L9.15016 22.3551C8.21844 20.7762 7.72553 18.949 7.72841 17.0845C7.72936 11.6236 11.9051 7.18068 17.0385 7.18068C19.5242 7.18068 21.8611 8.21275 23.6181 10.0845C24.485 11.003 25.172 12.0953 25.6396 13.2982C26.1072 14.5011 26.3459 15.7908 26.342 17.0926C26.3392 22.5535 22.1643 26.9964 17.0347 26.9964ZM24.956 8.66265C23.9186 7.55135 22.6843 6.67019 21.3245 6.07025C19.9648 5.47031 18.5067 5.16352 17.0347 5.16764C10.8628 5.16764 5.83966 10.5134 5.83683 17.0835C5.83683 19.1838 6.35186 21.2339 7.33202 23.0405L5.74268 29.2159L11.6792 27.5586C13.3209 28.5104 15.1605 29.0092 17.03 29.0095H17.0347C23.2057 29.0095 28.2298 23.6637 28.2326 17.0926C28.2372 15.5267 27.9499 13.9754 27.3875 12.5284C26.8251 11.0815 25.9987 9.76754 24.956 8.66265Z" fill="white"/>
</svg>
